<?xml version="1.0" encoding="UTF-8"?>
<svg id="Layer_1" xmlns="http://www.w3.org/2000/svg" version="1.1" viewBox="0 0 809 150">
  <!-- Generator: Adobe Illustrator 29.6.1, SVG Export Plug-In . SVG Version: 2.1.1 Build 9)  -->
  <defs>
    <style>
      .st0 {
        fill: #fff;
      }
    </style>
  </defs>
  <path class="st0" d="M299.97,113.92h-64.5c-1.65,0-5.48-3.64-7.15-3.81-2-.2-5.34,3.14-7.62,4.02-4.5,1.74-34.27,1.53-40.25.8-3.02-.37-4.9-1.75-7.46-3.02-.71,7.51-2.48,33-13.51,33H33.97c-.44-1.75.72-2,1.49-3.01,4.95-6.46,13.89-11.58,17.53-18.98,4.43,1.71,7.38,4.42,12.47,4.99,25.14,2.83,55.34-2.14,81.03.02,3.96.64,9.48-6.38,9.48-9.52v-58.5h14.5c3.09,5.53.98,13.98,1.46,20.54.39,5.3,2.36,18.46,9.54,18.46h30.5c-21.59-18.57-23.87-37.03,7.95-43.55,21.27-4.36,52.22,2.27,37.24,30.23-2.56,4.78-7.06,8.41-9.18,13.32h36V5.92c2.32-.05,4.05,2.46,5.51,3.99,5.26,5.47,9.99,12.89,15.29,18.5-1.23,1.62-4.81,7.45-4.81,9.01v76.5ZM245.69,70.2c-9.59-9.42-44.03-2.94-32.27,13.77,2.15,3.05,10.47,10.33,14.1,10.91,12.09,1.93,25.56-17.41,18.17-24.68Z"/>
  <path class="st0" d="M102.97,6.92v82h29v-27.5l1.5-1.5h15l1.5,1.5v43c-.88,1.43-1.99,1.38-3.45,1.55-17.27,2.03-50.98.95-69.09,0-16.12-.86-47.89-3.96-43.01-27.1,4.33-20.53,45.58-50.27,61.59-65.41,2.4-2.27,3.67-6.27,6.97-6.53ZM85.97,46.92c-6.38.94-14.55,7.53-19.53,11.97-27.33,24.44-8.4,31.82,19.53,31.03v-43Z"/>
  <path class="st0" d="M640.47,5.92c24.03,3.05,30.93,32.89,16.85,49.85l-11.34,6.14c19.27-.36,18.55,20.53,25.12,33.39,5.34,10.45,12.59,14.45,23.38,7.63,2.94-.94-4.49,6.63-5.59,7.41-1.74,1.24-3.75,2.67-5.85,3.15-27.04,6.27-27.73-28.82-38.24-43.9-1.26-1.81-6.5-6.67-8.33-6.67h-22.5v46.5c-1.43,2.25-11.74,1.99-13.06,1.06l-.8-1.2-.14-93.86c.05-5.08-2.94-6.45-6-9.5,14.58,1.34,32.31-1.8,46.5,0ZM613.97,58.92h17.5c.51,0,6.31-1.42,7.24-1.76,14.31-5.26,14.62-36.6,3.61-44.09-1.4-.96-7.51-3.15-8.85-3.15h-19.5v49Z"/>
  <path class="st0" d="M373.83,74.06l-33.9.32c-2.24,6.19-13.26,27.93-9.06,33.14l5.09,1.89c-3.66,3.03-9.59.91-14,1.5-.22-1.69.25-3.21.69-4.81,7.4-27.29,24.44-56.14,32.07-83.92l.1-8.11-8.85-.64c5.74-10.23,20.05-11.73,24.48.51l30.47,95.5c-.16,2.09-14.01,2.26-15.47.5l-11.62-35.88ZM372.97,69.92l-13.5-47.01-17.5,47.01h31Z"/>
  <path class="st0" d="M756.83,74.06l-33.9.32c-1.2.81-9.76,24.25-9.98,27.05-.43,5.55.43,7.17,6.02,7.98-1.95,2.55-14.85,2.04-14.97.01l33.74-87.24.1-8.11c-1.57-2.48-10.23,1.72-8.85-1.64,3.58-8.72,21.9-10.2,24.49,1.49l30.46,95.51c-.16,2.09-14.01,2.26-15.47.5l-11.62-35.88ZM755.97,69.92l-13.5-47.01-17.5,47.01h31Z"/>
  <path class="st0" d="M589.97,110.92l-14.53-.97-12.08-36.09-33.4.55c-3.25,6.67-12.78,25.93-9.51,32.53,1.3,2.62,5.19.66,4.51,3.98-2.46-.34-13.73,1.1-13.95-1.48l33.98-90.06c.53-10.51-8.04-4.53-9.02-5.46,4.9-11.26,18.62-12.09,23.87-.37l30.12,97.37ZM561.97,69.92l-12.5-47.01-18.5,47.01h31Z"/>
  <path class="st0" d="M423.97,105.92h21.5c4.87,0,10.93-4.64,12.73-9.27.78-2.01.07-5.3,1.77-5.73v20h-50V15.42c0-.6-1.77-5.1-2.39-5.61-1.68-1.37-4.52.05-4.6-1.88,5.16-1.65,12.34-3.48,16.96.52.88.76,4.04,7.23,4.04,7.96v89.5Z"/>
  <path class="st0" d="M693.97,5.92v79.5c0,3.2,3.93,5.37,6.99,5-4.79,3.51-13.97,3.65-18.03-.96-.65-.74-2.96-5.49-2.96-6.04V5.92h14Z"/>
  <rect class="st0" x="463.97" y="57.92" width="42" height="6"/>
  <path class="st0" d="M389.97,123.92l4.49-.05,5.01,14.06c1.82,0,2.73-17.03,9.5-14.01v18.5l-3,1.5v-14l-6.5,13.98-6.5-13.98v14h-3v-20Z"/>
  <path class="st0" d="M726.97,123.92c19.01-4.3,11.43,7.73,13.99,20-6.19-1.16-.83-10.6-9.45-9.04l-1.55,9.04c-.93.43-2.99-.89-2.99-1.5v-18.5ZM730.98,132.92c1.6-.92,7.58-1.98,6.99-4.49-1.75-2.07-4.36-2.76-6.99-2.51v7Z"/>
  <path class="st0" d="M533.7,125.19c.92.94,1.37,3.43,2.27,4.72-4.03.18-5.01-4.88-9.03-3.6-7.28,2.32-4.7,20.22,4.88,14.46l.21-4.24-4.04-2.11c1.92-2.49,5.27-1.31,7.98-1.5l-.47,10.08c-8.46,2.98-16.04,1.93-16.17-8.75-.1-7.88,8.83-14.73,14.37-9.06Z"/>
  <path class="st0" d="M266.97,123.92c3.74-.82,7.36-1.38,10.92.58,5.59,3.08,1.43,5.91,1.41,9.73,0,1.32,2.76,9.74,1.17,9.7-6.7-2.43.29-11.13-10.49-9.01v9c-.93.43-3-.89-3-1.49v-18.5ZM276.85,127.03l-6.88-1.11v7s6.85-2.13,6.85-2.13l.03-3.76Z"/>
  <path class="st0" d="M570.71,124.19c1.36,1.38,6.95,18.96,6.25,19.72-4.96-.24-2.42-5.82-7.49-6.1-6.58-.37-3.61,4.91-8.5,6.1.39-3.44,4.73-20.36,7.48-20.76.73.28,1.73.5,2.26,1.04Z"/>
  <path class="st0" d="M182.97,124.42c13.68-6.65,21.75,10.74,4.1,11.6l-.1,7.9c-1.67.73-3.99-2.85-3.99-3.49v-16ZM193.92,130.86c.93-4.16-3.8-4.73-6.95-4.93v6.99s6.95-2.06,6.95-2.06Z"/>
  <path class="st0" d="M364.97,140.42c-1.11,4.03-10.37,4.73-13.03,2.03-1.21-1.23-2.68-15.73-1.5-17.56,6.64-3.15,1.88,12.15,3.97,15.09l5.9.98c3.37-.81.1-15.72,2.66-17.55l2,1.01c-.76,4.35,1.04,12.22,0,16Z"/>
  <path class="st0" d="M434.97,123.92c4.24-.82,7.79-1.71,12,.01,3.09,3.2-8.57,1.54-9,1.98v6.01s8,0,8,0c1.1,3.86-6.48,2.51-6.99,3v6c.63.65,7.61-1.34,8.97,1.49,0,2.47-10.92,1.24-12.98,1.5v-20Z"/>
  <path class="st0" d="M686.97,122.92h12c-.55,3.72-8.86,2.52-9.02,3.57v4.43s8.03,1.51,8.03,1.51c.97,3.07-7.25.72-8.01,1.48v7.01c.65.65,7.61-1.35,8.98,1.49,0,2.4-10.03,1.29-11.98,1.5v-21Z"/>
  <path class="st0" d="M106.68,110.14c12.44-3.67,12.45,15.24,0,11.57-5.04-1.49-5.08-10.07,0-11.57Z"/>
  <path class="st0" d="M225.97,122.92h10.99c1.04,4.11-7.51,2.52-8,3v5.01s8.02.5,8.02.5c-.07,3.66-5.95,2.33-8.02,2.49v7.01c.79.79,10.01-1.61,9.01,1.48l-10.35,1.35-1.66-1.34v-19.5Z"/>
  <path class="st0" d="M35.25,7.2c5.63-5.58,14.28.79,9.78,8.29s-16.9-1.22-9.78-8.29Z"/>
  <path class="st0" d="M122.66,110.12c12.42-3.82,12.42,15.42,0,11.61-4.67-1.44-4.69-10.16,0-11.61Z"/>
  <path class="st0" d="M644.97,123.92l3.06.44.94,16.56c.65.65,7.61-1.35,8.98,1.5,0,2.47-10.92,1.24-12.98,1.5v-20Z"/>
  <path class="st0" d="M309.97,122.92h12c-1.64,3.4-5.86,3.11-9.01,2.99v6.01c.38.36,7.59-.81,8,1.98l-7.99,1.02-1,8.5-2-1.01v-19.5Z"/>
  <path class="st0" d="M782.96,123.93c-2.1,7.11-7.67,11.81-6,20h-2.99c1.63-8.24-3.65-12.99-6-20,5.03-.8,4.51,5.58,7.49,7.97,3.17-2.05,3.18-7.79,7.5-7.97Z"/>
  <path class="st0" d="M606.97,123.92v18c2.29.74,9.73-1.94,8.99,1.99h-11.99s0-18.49,0-18.49l3-1.5Z"/>
</svg>